<?xml version="1.0" encoding="UTF-8" standalone="no"?>
<!DOCTYPE svg PUBLIC "-//W3C//DTD SVG 1.1//EN" "http://www.w3.org/Graphics/SVG/1.1/DTD/svg11.dtd">
<svg width="100%" height="100%" viewBox="0 0 898 898" version="1.1" xmlns="http://www.w3.org/2000/svg" xmlns:xlink="http://www.w3.org/1999/xlink" xml:space="preserve" xmlns:serif="http://www.serif.com/" style="fill-rule:evenodd;clip-rule:evenodd;stroke-linejoin:round;stroke-miterlimit:2;">
    <g id="Artboard1" transform="matrix(1,0,0,1,-141.5,-23.5328)">
        <rect x="141.5" y="23.533" width="897.637" height="897.266" style="fill:none;"/>
        <clipPath id="_clip1">
            <rect x="141.5" y="23.533" width="897.637" height="897.266"/>
        </clipPath>
        <g clip-path="url(#_clip1)">
            <g transform="matrix(1,0,0,1,0.5,0.532784)">
                <path d="M845.571,527.099C881.048,527.338 920.203,539.381 951.388,560.171C968.816,571.79 986.481,588.374 999.248,605.102C1017.39,628.869 1030.6,659.21 1036.21,690C1039.13,705.962 1039.35,742.631 1036.62,757.46C1026.93,810.113 998.973,854.392 955.924,885.257C943.609,894.087 918.497,906.679 903.99,911.299C881.811,918.361 867.46,920.759 845.298,920.851L844.183,920.854C843.063,920.855 841.921,920.85 840.757,920.84C830.715,920.752 820.925,920.503 819,920.286C817.075,920.069 810.1,918.806 803.5,917.479C752.092,907.145 707.626,877.412 678.08,833.617C654.606,798.823 642.104,751.309 645.948,711.5C647.309,697.401 647.643,696 649.642,696L649.675,696.002C651.158,696.158 665.493,706.343 726.696,750.706C736.226,757.614 737.031,758.47 739.011,763.799C752.201,799.297 785.487,827.017 822.719,833.51C829.13,834.628 835.52,835.172 841.83,835.175L842.482,835.174C891.633,834.913 936.016,801.96 949.554,752.893C953.161,739.817 953.986,720.187 951.509,706.351C944.579,667.641 920.578,637.425 884.739,622.29L875.763,618.5L862.045,599.5C854.5,589.05 840.603,569.86 831.163,556.855C821.723,543.85 814,532.518 814,531.672C814,529.703 815.215,529.391 828.5,527.942C833.749,527.37 839.131,527.091 844.604,527.095L845.571,527.099ZM308.778,919.5C228.821,906.579 165.79,849.316 146.58,772.143C142.058,753.977 141.5,748.576 141.5,723C141.5,701.334 141.768,697.175 143.82,687.044C150.158,655.74 163.847,626.035 183.019,601.98C191.928,590.803 211.451,572.015 221.871,564.591C247.578,546.277 277.358,534.159 309.604,528.891C326.133,526.191 363.943,527.672 366.064,531.103C366.438,531.708 359.024,542.845 349.589,555.851C340.154,568.858 326.078,588.282 318.309,599.016L304.182,618.532L296.277,621.764C263.408,635.203 238.73,663.365 230.037,697.356C226.891,709.658 225.767,723.369 227.024,734.122C231.761,774.632 254.215,806.989 289.5,824.152C303.905,831.159 316.209,834.117 333.5,834.73C344.109,835.106 349.68,834.819 356.5,833.544C380.803,829.002 402.249,817.37 418.265,800.043C428.696,788.758 434.078,779.96 442.455,760.5C443.419,758.261 454.569,749.695 486.384,726.75C509.834,709.838 529.643,696 530.402,696C532.124,696 532.664,698.135 534.089,710.582C536.131,728.419 533.901,753.132 528.323,774.5C515.629,823.119 482.916,866.776 439.55,892.97C421.012,904.167 396.657,913.564 374.5,918.067C360.374,920.939 322.756,921.758 308.778,919.5ZM759,549.14L773.927,569.82C782.137,581.194 801.375,607.8 816.677,628.943L844.5,667.387L852.445,668.717C884.181,674.032 904.982,705.998 897.463,737.897C892.694,758.125 874.554,775.837 854.299,780.042C846.194,781.724 830.97,780.79 823.611,778.159C803.654,771.024 788.784,752.757 786.199,732.201L785.5,726.643L762.5,710.001C749.85,700.848 723.196,681.578 703.27,667.179L667.04,641L513.231,641L499.365,650.935C491.739,656.4 465.049,675.637 440.053,693.685L394.606,726.5L393.272,734.489C390.34,752.036 379.159,766.946 363,774.853C358.325,777.141 352.076,779.46 349.114,780.006C341.589,781.394 329.483,781.133 323.219,779.447C297.859,772.62 281.067,750.543 281.015,723.96C280.96,696.006 300.36,673.384 328.5,668.587L335.5,667.394L352.5,643.889C361.85,630.962 381.087,604.353 395.25,584.758L421,549.132L421,394.86L406.073,374.18C397.863,362.806 378.618,336.176 363.307,315.002L335.468,276.504L329.957,275.816C309.683,273.284 292.172,259.312 284.286,239.377C281.816,233.135 281.565,231.3 281.568,219.5C281.571,208.236 281.884,205.699 283.917,200.5C293.002,177.269 313.515,163.063 338.04,163.015C347.416,162.996 355.309,165.002 364.158,169.652C373.131,174.367 378.879,179.545 384.459,187.938C389.764,195.919 391.722,200.849 393.405,210.473L394.625,217.446L417.562,234.056C430.178,243.192 456.811,262.442 476.746,276.833L512.992,303L666.819,303L678.159,294.846C752.843,241.148 785.213,217.548 785.458,216.618C785.619,216.003 786.232,212.376 786.819,208.557C788.424,198.118 793.815,188.081 802.405,179.534C830.529,151.554 877.552,160.064 893.886,196.089C909.639,230.831 887.849,270.384 850,275.748L844.501,276.527L827.5,300.071C818.15,313.021 798.913,339.647 784.75,359.242L759,394.869L759,549.14ZM317.5,415.886C283.23,412.671 247.056,398.343 218.273,376.581C181.512,348.788 154.377,306.017 145.099,261.247C140.7,240.016 139.646,211.071 142.545,191.128C153.986,112.446 212.419,47.828 289.5,28.617C305.584,24.608 319.284,23 337.344,23C380.577,23 417.239,34.7 453.257,59.99C464.142,67.634 487.135,90.164 495.357,101.245C518.109,131.905 531.016,166.765 534.054,205.755C535.099,219.17 534.24,239.986 532.384,246.25C531.272,250.001 533.22,251.294 462.674,200C443.969,186.399 442.622,185.205 440.963,180.75C429.762,150.678 403.987,125.308 374.339,115.171C360.5,110.439 354.23,109.5 336.5,109.502C320.976,109.504 318.637,109.745 309.558,112.28C290.446,117.615 274.296,126.746 260.664,139.925C243.767,156.261 233.502,174.966 228.516,198.509C226.537,207.85 226.559,229.452 228.557,239.989C232.596,261.277 242.806,280.732 258.342,296.743C269.698,308.445 286.901,319.609 300.249,323.939C303.525,325.001 305.749,327.58 317.836,344.327C325.447,354.872 339.397,374.14 348.837,387.145C358.277,400.15 366,411.477 366,412.316C366,414.174 363.704,414.685 349.5,415.989C337.105,417.126 330.502,417.105 317.5,415.886ZM828.163,415.959C818.252,414.92 814.18,414.1 813.504,413.006C813.192,412.502 816.019,407.907 819.785,402.795C823.551,397.683 837.695,378.2 851.217,359.5L875.802,325.5L885.651,321.254C940.518,297.6 966.526,237.079 945.997,180.829C933.168,145.676 903.379,119.866 865.818,111.357C855.64,109.052 853.039,108.844 840,109.293C828.922,109.674 823.022,110.414 815,112.426C781.585,120.806 753.063,145.75 739.798,178.194L736.513,186.23L693.761,217.115C670.247,234.102 650.341,248 649.524,248C645.537,248 643.679,215.72 646.462,194.811C654.676,133.107 690.352,79.714 744.03,48.791C762.681,38.047 781.012,31.146 803.843,26.272C815.64,23.754 818.199,23.568 841.5,23.535C867.567,23.499 870.84,23.841 890.5,28.658C941.428,41.138 986.38,75.309 1013.14,121.886C1037.03,163.469 1044.84,213.204 1034.96,260.856C1024.54,311.111 993.194,356.472 948.976,385.278C913.503,408.387 867.463,420.08 828.163,415.959Z" style="fill:rgb(52,108,188);"/>
            </g>
        </g>
    </g>
</svg>
