<?xml version="1.0" encoding="UTF-8" standalone="no"?>
<svg
   width="596"
   height="584"
   viewBox="0 0 596 584"
   fill="none"
   version="1.1"
   id="svg25482"
   sodipodi:docname="electronicsIcon.svg"
   inkscape:version="1.2 (dc2aedaf03, 2022-05-15)"
   xmlns:inkscape="http://www.inkscape.org/namespaces/inkscape"
   xmlns:sodipodi="http://sodipodi.sourceforge.net/DTD/sodipodi-0.dtd"
   xmlns="http://www.w3.org/2000/svg"
   xmlns:svg="http://www.w3.org/2000/svg">
  <sodipodi:namedview
     id="namedview25484"
     pagecolor="#ffffff"
     bordercolor="#666666"
     borderopacity="1.0"
     inkscape:showpageshadow="2"
     inkscape:pageopacity="0.0"
     inkscape:pagecheckerboard="0"
     inkscape:deskcolor="#d1d1d1"
     showgrid="false"
     inkscape:zoom="1.5359589"
     inkscape:cx="298.51059"
     inkscape:cy="293.30212"
     inkscape:window-width="2556"
     inkscape:window-height="1396"
     inkscape:window-x="1920"
     inkscape:window-y="20"
     inkscape:window-maximized="1"
     inkscape:current-layer="svg25482" />
  <path
     fill-rule="evenodd"
     clip-rule="evenodd"
     d="m 411,0 c 16.569,0 30,13.4315 30,30 v 70 c 0,1.127 -0.062,2.24 -0.183,3.335 23.124,2.679 41.438,21.135 43.901,44.324 C 486.744,147.227 488.845,147 491,147 h 70 c 16.569,0 30,13.431 30,30 0,16.569 -13.431,30 -30,30 h -70 c -2.055,0 -4.061,-0.207 -6,-0.6 v 56.421 c 2.246,-0.537 4.59,-0.821 7,-0.821 h 70 c 16.569,0 30,13.431 30,30 0,16.569 -13.431,30 -30,30 h -70 c -2.41,0 -4.754,-0.284 -7,-0.821 V 373.6 c 1.939,-0.393 3.945,-0.6 6,-0.6 h 70 c 16.569,0 30,13.431 30,30 0,16.569 -13.431,30 -30,30 h -70 c -2.121,0 -4.191,-0.22 -6.188,-0.639 -2.095,24.255 -21.508,43.558 -45.812,45.481 V 545 c 0,16.569 -13.431,30 -30,30 -16.569,0 -30,-13.431 -30,-30 v -67 h -55 v 68 c 0,16.569 -13.431,30 -30,30 -16.569,0 -30,-13.431 -30,-30 v -68 h -51 v 67 c 0,16.569 -13.431,30 -30,30 -16.569,0 -30,-13.431 -30,-30 V 477.514 C 130.114,474.308 112.196,455.61 110.188,432.361 108.191,432.78 106.121,433 104,433 H 34 C 17.4315,433 4,419.569 4,403 4,386.431 17.4315,373 34,373 h 70 c 2.055,0 4.061,0.207 6,0.6 v -52.015 c -1.626,0.273 -3.296,0.415 -5,0.415 H 35 C 18.4315,322 5,308.569 5,292 5,275.431 18.4315,262 35,262 h 70 c 1.704,0 3.374,0.142 5,0.415 V 206.4 c -1.939,0.393 -3.945,0.6 -6,0.6 H 34 C 17.4315,207 4,193.569 4,177 4,160.431 17.4315,147 34,147 h 70 c 2.155,0 4.256,0.227 6.282,0.659 2.497,-23.519 21.301,-42.169 44.89,-44.429 C 155.058,102.169 155,101.091 155,100 V 30 c 0,-16.5685 13.431,-30 30,-30 16.569,0 30,13.4315 30,30 v 70 c 0,1.012 -0.05,2.013 -0.148,3 h 51.214 C 266.022,102.339 266,101.672 266,101 V 31 c 0,-16.5685 13.431,-30 30,-30 16.569,0 30,13.4315 30,30 v 70 c 0,0.672 -0.022,1.339 -0.066,2 h 55.214 C 381.05,102.013 381,101.012 381,100 V 30 C 381,13.4315 394.431,0 411,0 Z"
     fill="#346cbc"
     id="path25461"
     style="filter:url(#filter0_d);fill:#90dcf4;fill-opacity:1" />
  <defs
     id="defs25480">
    <filter
       id="filter0_d"
       x="0"
       y="0"
       width="596"
       height="584"
       filterUnits="userSpaceOnUse"
       color-interpolation-filters="sRGB">
      <feFlood
         flood-opacity="0"
         result="BackgroundImageFix"
         id="feFlood25465" />
      <feColorMatrix
         in="SourceAlpha"
         type="matrix"
         values="0 0 0 0 0 0 0 0 0 0 0 0 0 0 0 0 0 0 127 0"
         id="feColorMatrix25467" />
      <feOffset
         dy="4"
         id="feOffset25469" />
      <feGaussianBlur
         stdDeviation="2"
         id="feGaussianBlur25471" />
      <feColorMatrix
         type="matrix"
         values="0 0 0 0 0 0 0 0 0 0 0 0 0 0 0 0 0 0 0.25 0"
         id="feColorMatrix25473" />
      <feBlend
         mode="normal"
         in2="BackgroundImageFix"
         result="effect1_dropShadow"
         id="feBlend25475" />
      <feBlend
         mode="normal"
         in="SourceGraphic"
         in2="effect1_dropShadow"
         result="shape"
         id="feBlend25477" />
    </filter>
  </defs>
</svg>
