<?xml version="1.0" encoding="UTF-8" standalone="no"?>
<svg
   width="100%"
   height="100%"
   viewBox="0 0 503 503"
   version="1.1"
   xml:space="preserve"
   style="fill-rule:evenodd;clip-rule:evenodd;stroke-linejoin:round;stroke-miterlimit:2;"
   id="svg25615"
   sodipodi:docname="plane.svg"
   inkscape:version="1.2 (dc2aedaf03, 2022-05-15)"
   xmlns:inkscape="http://www.inkscape.org/namespaces/inkscape"
   xmlns:sodipodi="http://sodipodi.sourceforge.net/DTD/sodipodi-0.dtd"
   xmlns="http://www.w3.org/2000/svg"
   xmlns:svg="http://www.w3.org/2000/svg"><defs
   id="defs25619">
        
        
        
    
            
        
                
            <clipPath
   clipPathUnits="userSpaceOnUse"
   id="clipPath29765"><rect
     x="96.160301"
     y="-238.12099"
     width="502.03699"
     height="502.03699"
     id="rect29767"
     transform="rotate(45)" /></clipPath></defs><sodipodi:namedview
   id="namedview25617"
   pagecolor="#ffffff"
   bordercolor="#666666"
   borderopacity="1.0"
   inkscape:showpageshadow="2"
   inkscape:pageopacity="0.0"
   inkscape:pagecheckerboard="0"
   inkscape:deskcolor="#d1d1d1"
   showgrid="false"
   inkscape:zoom="1.7833002"
   inkscape:cx="252.62152"
   inkscape:cy="253.74303"
   inkscape:window-width="2556"
   inkscape:window-height="1396"
   inkscape:window-x="1920"
   inkscape:window-y="20"
   inkscape:window-maximized="1"
   inkscape:current-layer="svg25615" />
    <rect
   x="0.0003984436"
   y="0.00043987413"
   width="502.03699"
   height="502.03699"
   style="fill:none"
   id="rect25603" /><path
   d="M 480,192 H 365.71 L 260.61,8.06 C 257.761,3.081 252.446,0 246.71,0 h -65.5 c -10.63,0 -18.3,10.17 -15.38,20.39 L 214.86,192 H 112 L 68.8,134.4 C 65.78,130.37 61.03,128 56,128 H 16.01 C 5.6,128 -2.04,137.78 0.49,147.88 L 32,256 0.49,364.12 C -2.04,374.22 5.6,384 16.01,384 H 56 c 5.04,0 9.78,-2.37 12.8,-6.4 L 112,320 h 102.86 l -49.03,171.6 c -2.92,10.22 4.75,20.4 15.38,20.4 h 65.5 c 5.74,0 11.04,-3.08 13.89,-8.06 L 365.71,320 H 480 c 35.35,0 96,-28.65 96,-64 0,-35.35 -60.65,-64 -96,-64 z"
   style="fill:#90dcf4;fill-rule:nonzero;fill-opacity:1"
   id="path25608"
   transform="rotate(-45,239.35804,235.13598)"
   clip-path="url(#clipPath29765)" />
            
        
</svg>
