<?xml version="1.0" encoding="utf-8"?>
<!-- Generator: Adobe Illustrator 22.0.1, SVG Export Plug-In . SVG Version: 6.00 Build 0)  -->
<svg version="1.1" id="Layer_1" xmlns="http://www.w3.org/2000/svg" xmlns:xlink="http://www.w3.org/1999/xlink" x="0px" y="0px"
	 viewBox="0 0 580 225.8" style="enable-background:new 0 0 580 225.8;" xml:space="preserve">
<style type="text/css">
	.st0{fill:#334879;}
	.st1{fill:#121542;}
	.st2{fill:none;stroke:#121542;stroke-width:2.25;stroke-miterlimit:4.1943;}
	.st3{fill:#1C2254;}
	.st4{fill:#405482;}
	.st5{fill:#7381A3;}
	.st6{fill:#808DAC;}
	.st7{fill:#B3BACC;}
	.st8{fill:#D9DDE6;}
	.st9{fill:#BFC6D5;}
</style>
<g>
	<path class="st0" d="M246.2,216.6h3.1v-9.3h4.8c5,0,8.4-2.1,8.4-6.3c0-3.9-3.4-6-8-6h-8.3V216.6L246.2,216.6z M249.3,197.2h4.7
		c3.2,0,5.3,1.2,5.3,3.8c0,3.1-2.1,4.1-5.4,4.1h-4.7V197.2L249.3,197.2z M277.6,210l2.5,6.6h3.2L275,195h-3.9
		c-1.9,5.1-6.3,17.1-8,21.6h3l2.4-6.6H277.6L277.6,210z M269.3,207.7c1.7-4.6,3-8,3.7-10.5h0.1c0.5,1.7,1.8,5,3.9,10.5H269.3
		L269.3,207.7z M295.2,206.8c4,0,5.3,1.2,5.3,4.3v0.4c0,2.3,0.1,4.3,0.4,5.1h3c-0.3-1.3-0.4-3.2-0.4-5.2v-0.4c0-2.9-1.1-4.7-3.6-5.4
		c1.9-0.5,4-1.9,4-5c0-3.7-3.1-5.6-7.4-5.6h-8.7v21.6h3v-9.8H295.2L295.2,206.8z M290.9,197.2h5.3c2.9,0,4.7,1.2,4.7,3.5
		c0,3-2.2,3.9-5.5,3.9h-4.5V197.2L290.9,197.2z M314.7,216.6h3.1v-19.3h7.2V195h-17.5v2.3h7.2V216.6L314.7,216.6z M332.4,216.6V208
		c0-3.9,0-7.5-0.2-10.3h0c0.5,0.9,1.3,2.3,11.9,18.9h3.7V195h-2.9v8.5c0,3.5,0,7,0.2,9.9h0c-0.5-0.9-1.8-3-11.6-18.4h-4.1v21.6
		H332.4L332.4,216.6z M369.2,204.1h-11.1v-6.8h11.6V195h-14.6v21.6h14.8l0.4-2.3h-12.2v-7.9h11.1V204.1L369.2,204.1z M382.8,206.8
		c4,0,5.3,1.2,5.3,4.3v0.4c0,2.3,0.1,4.3,0.4,5.1h3c-0.3-1.3-0.4-3.2-0.4-5.2v-0.4c0-2.9-1.1-4.7-3.6-5.4c1.9-0.5,4-1.9,4-5
		c0-3.7-3.1-5.6-7.4-5.6h-8.7v21.6h3v-9.8H382.8L382.8,206.8z M378.5,197.2h5.3c2.9,0,4.7,1.2,4.7,3.5c0,3-2.2,3.9-5.5,3.9h-4.5
		V197.2L378.5,197.2z M396.1,210.5c0.3,3.9,3.4,6.4,8.5,6.4c5.4,0,8.2-2.6,8.2-6.2c0-3-1.5-5-7.5-6.6c-4-1-5.3-1.8-5.3-3.9
		c0-2,1.4-3.2,4.3-3.2c3.1,0,4.5,1.4,4.9,3.6h3c-0.3-3.1-2.5-5.8-7.8-5.8c-4.6,0-7.6,2.2-7.6,5.6c0,3.1,2,4.6,7.1,6
		c4.3,1.2,5.6,2.2,5.6,4.6c0,2.4-1.9,3.7-4.9,3.7c-2.9,0-5.1-1.3-5.6-4.2H396.1L396.1,210.5z M418.3,216.6h3.1v-10.2h11.5v10.2h3.1
		V195h-3.1v9.1h-11.5V195h-3.1V216.6L418.3,216.6z M443.3,195v21.6h3.1V195H443.3L443.3,195z M453.6,216.6h3.1v-9.3h4.8
		c5,0,8.4-2.1,8.4-6.3c0-3.9-3.4-6-8-6h-8.3V216.6L453.6,216.6z M456.7,197.2h4.7c3.2,0,5.3,1.2,5.3,3.8c0,3.1-2.1,4.1-5.4,4.1h-4.7
		V197.2L456.7,197.2z M485,216.6h3v-9.9h10.7v-2.3h-10.7v-7.2h11.4V195H485V216.6L485,216.6z M504.2,195v14c0,5,2.5,7.9,8.8,7.9
		c6.7,0,8.9-3.5,8.9-8.1V195h-3.1v13.7c0,3.6-1.4,5.9-5.7,5.9c-4.4,0-5.8-2.5-5.8-5.9V195H504.2L504.2,195z M531.8,216.6V208
		c0-3.9,0-7.5-0.2-10.3h0c0.5,0.9,1.3,2.3,11.9,18.9h3.7V195h-2.9v8.5c0,3.5,0,7,0.3,9.9h0c-0.5-0.9-1.8-3-11.6-18.4h-4.1v21.6
		H531.8L531.8,216.6z M554.6,216.6h7.6c7.2,0,11.4-4.3,11.4-11.3c0-6.8-4.7-10.3-11-10.3h-8V216.6L554.6,216.6z M557.6,197.2h4.5
		c5,0,8.3,2.9,8.3,8.1c0,5.7-2.7,9-8.4,9h-4.4V197.2L557.6,197.2z"/>
	<path class="st1" d="M267.4,110.4h-7.2v42.8c0,6.8-1.1,12-7.9,12c-1.8,0-3.6-0.1-4.9-0.4v6.2c1.3,0.3,3.3,0.5,5.6,0.5
		c12.1,0,14.4-8.5,14.4-18.8V110.4L267.4,110.4z M315.2,150v-3.3c0-10.3-3.9-21.1-17.4-21.1c-13.2,0-18.4,12-18.4,23
		c0,12.3,4.6,23.2,18,23.2c11.5,0,15.8-7.9,17.2-13.4h-6.9c-0.8,2.3-3,7.3-9.9,7.3c-7.6,0-11.2-6.7-11.2-15.6H315.2L315.2,150z
		 M286.6,144.8c0.4-5.3,2.5-13.3,11-13.3c7.5,0,10.4,5.7,10.6,13.3H286.6L286.6,144.8z M335.5,170.9v-38.5h8.1v-6h-8.1v-5.9
		c0-5.3,1.4-7.9,5.3-7.9c1.4,0,2.6,0.2,3.5,0.4v-6.2c-1-0.4-2.7-0.5-4.1-0.5c-9,0-11.6,6.7-11.6,14.5v5.5H322v6h6.6v38.5H335.5
		L335.5,170.9z M359.3,170.9v-38.5h8.1v-6h-8.1v-5.9c0-5.3,1.4-7.9,5.3-7.9c1.4,0,2.6,0.2,3.5,0.4v-6.2c-1-0.4-2.7-0.5-4.1-0.5
		c-9,0-11.6,6.7-11.6,14.5v5.5h-6.6v6h6.6v38.5H359.3L359.3,170.9z M408.8,150v-3.3c0-10.3-3.9-21.1-17.4-21.1
		c-13.2,0-18.4,12-18.4,23c0,12.3,4.6,23.2,18,23.2c11.5,0,15.8-7.9,17.2-13.4h-6.9c-0.8,2.3-3,7.3-9.9,7.3
		c-7.6,0-11.2-6.7-11.2-15.6H408.8L408.8,150z M380.3,144.8c0.4-5.3,2.5-13.3,11-13.3c7.5,0,10.4,5.7,10.6,13.3H380.3L380.3,144.8z
		 M420.7,170.9h7v-21.8c0-9.6,4.1-15.5,13.8-15.9v-7.5c-7.1,0.1-11.9,4.3-13.9,9.8c0-4.1,0-6.9-0.2-9h-6.9c0.1,2.2,0.2,8,0.2,15.1
		V170.9L420.7,170.9z M448.1,158c0.8,9.3,7.5,13.7,16.4,13.7c9.3,0,15.5-5.1,15.5-13.3c0-7.1-3.5-10.9-14.4-13.9
		c-7.2-1.9-8.8-3.8-8.8-7.1c0-3.7,2.2-6,7-6c5.9,0,7.7,3.5,8.4,7.1h7c-0.6-6.8-4.7-12.8-15-12.8c-10.5,0-14.4,6.5-14.4,12.4
		c0,6,2.7,9.9,13.2,12.9c7.3,2,10,4.1,10,8.1c0,3.8-2.3,7-8.2,7c-5.3,0-8.9-2.8-9.7-8H448.1L448.1,158z M508.4,125.6
		c-13.1,0-19.3,10.9-19.3,22.6c0,12.2,5.3,23.5,18.7,23.5c13.8,0,19.3-10.9,19.3-23.7C527.1,135.1,520.6,125.6,508.4,125.6
		L508.4,125.6z M508.1,131.6c7.8,0,11.7,6.7,11.7,16.4c0,10.4-3.5,17.6-11.5,17.6c-7.7,0-11.8-7.4-11.8-17.5
		C496.5,138.4,500.5,131.6,508.1,131.6L508.1,131.6z M539.1,170.9h7v-23.7c0-9.3,3.1-15.2,10.7-15.2c6.5,0,8.6,4.9,8.6,11.4v27.5h7
		v-28.7c0-12-5.7-16.6-13.7-16.6c-7,0-11,3.9-12.7,7.8c0.1-1.8-0.1-6-0.3-6.9h-6.9c0.1,1.9,0.2,4.6,0.2,13.9V170.9L539.1,170.9z"/>
	<path class="st2" d="M267.4,110.4h-7.2v42.8c0,6.8-1.1,12-7.9,12c-1.8,0-3.6-0.1-4.9-0.4v6.2c1.3,0.3,3.3,0.5,5.6,0.5
		c12.1,0,14.4-8.5,14.4-18.8V110.4L267.4,110.4z M315.2,150v-3.3c0-10.3-3.9-21.1-17.4-21.1c-13.2,0-18.4,12-18.4,23
		c0,12.3,4.6,23.2,18,23.2c11.5,0,15.8-7.9,17.2-13.4h-6.9c-0.8,2.3-3,7.3-9.9,7.3c-7.6,0-11.2-6.7-11.2-15.6H315.2L315.2,150z
		 M286.6,144.8c0.4-5.3,2.5-13.3,11-13.3c7.5,0,10.4,5.7,10.6,13.3H286.6L286.6,144.8z M335.5,170.9v-38.5h8.1v-6h-8.1v-5.9
		c0-5.3,1.4-7.9,5.3-7.9c1.4,0,2.6,0.2,3.5,0.4v-6.2c-1-0.4-2.7-0.5-4.1-0.5c-9,0-11.6,6.7-11.6,14.5v5.5H322v6h6.6v38.5H335.5
		L335.5,170.9z M359.3,170.9v-38.5h8.1v-6h-8.1v-5.9c0-5.3,1.4-7.9,5.3-7.9c1.4,0,2.6,0.2,3.5,0.4v-6.2c-1-0.4-2.7-0.5-4.1-0.5
		c-9,0-11.6,6.7-11.6,14.5v5.5h-6.6v6h6.6v38.5H359.3L359.3,170.9z M408.8,150v-3.3c0-10.3-3.9-21.1-17.4-21.1
		c-13.2,0-18.4,12-18.4,23c0,12.3,4.6,23.2,18,23.2c11.5,0,15.8-7.9,17.2-13.4h-6.9c-0.8,2.3-3,7.3-9.9,7.3
		c-7.6,0-11.2-6.7-11.2-15.6H408.8L408.8,150z M380.3,144.8c0.4-5.3,2.5-13.3,11-13.3c7.5,0,10.4,5.7,10.6,13.3H380.3L380.3,144.8z
		 M420.7,170.9h7v-21.8c0-9.6,4.1-15.5,13.8-15.9v-7.5c-7.1,0.1-11.9,4.3-13.9,9.8c0-4.1,0-6.9-0.2-9h-6.9c0.1,2.2,0.2,8,0.2,15.1
		V170.9L420.7,170.9z M448.1,158c0.8,9.3,7.5,13.7,16.4,13.7c9.3,0,15.5-5.1,15.5-13.3c0-7.1-3.5-10.9-14.4-13.9
		c-7.2-1.9-8.8-3.8-8.8-7.1c0-3.7,2.2-6,7-6c5.9,0,7.7,3.5,8.4,7.1h7c-0.6-6.8-4.7-12.8-15-12.8c-10.5,0-14.4,6.5-14.4,12.4
		c0,6,2.7,9.9,13.2,12.9c7.3,2,10,4.1,10,8.1c0,3.8-2.3,7-8.2,7c-5.3,0-8.9-2.8-9.7-8H448.1L448.1,158z M508.4,125.6
		c-13.1,0-19.3,10.9-19.3,22.6c0,12.2,5.3,23.5,18.7,23.5c13.8,0,19.3-10.9,19.3-23.7C527.1,135.1,520.6,125.6,508.4,125.6
		L508.4,125.6z M508.1,131.6c7.8,0,11.7,6.7,11.7,16.4c0,10.4-3.5,17.6-11.5,17.6c-7.7,0-11.8-7.4-11.8-17.5
		C496.5,138.4,500.5,131.6,508.1,131.6L508.1,131.6z M539.1,170.9h7v-23.7c0-9.3,3.1-15.2,10.7-15.2c6.5,0,8.6,4.9,8.6,11.4v27.5h7
		v-28.7c0-12-5.7-16.6-13.7-16.6c-7,0-11,3.9-12.7,7.8c0.1-1.8-0.1-6-0.3-6.9h-6.9c0.1,1.9,0.2,4.6,0.2,13.9V170.9L539.1,170.9z"/>
	<path class="st1" d="M284.7,33.2H243v6.5h17.2v54h7.3v-54h17.3V33.2L284.7,33.2z M293.5,32.2v61.5h7.1V68.4
		c0-8.9,3.6-13.6,10.5-13.6c6.3,0,8.8,4,8.8,10.8v28.1h7V64.3c0-12.6-7.2-16-13.5-16c-6.5,0-10.8,3-12.8,7.3V32.2H293.5L293.5,32.2z
		 M338.9,71c0,12.2,5.4,23.5,18.7,23.5c13.9,0,19.3-10.9,19.3-23.8c0-12.8-6.5-22.4-18.7-22.4C345.1,48.4,338.9,59.2,338.9,71
		L338.9,71z M346.2,70.9c0-9.7,4-16.5,11.6-16.5c7.8,0,11.7,6.7,11.7,16.4c0,10.4-3.5,17.6-11.6,17.6
		C350.3,88.4,346.2,81.1,346.2,70.9L346.2,70.9z M395.6,49.3h-6.9c0.1,2,0.2,6,0.2,13.8v30.6h7V68.4c0-8.9,3.7-13.6,9.8-13.6
		c5.6,0,7.7,4.1,7.7,9.6v29.3h7V67.6c0-7.1,2.8-12.9,9.5-12.9c6.1,0,7.8,4.6,7.8,10.1v28.9h7V63.5c0-11.7-6.4-15.2-12.9-15.2
		c-6.5,0-10.9,3.6-12.7,7.6c-1.6-5-5.4-7.6-11-7.6c-6.3,0-10,3.3-12.1,7.2C395.8,54,395.8,50.5,395.6,49.3L395.6,49.3z M455.9,81
		c0,6.1,3.1,13.5,13.7,13.5c7.1,0,11.4-3.2,13.1-7.6c0,2.9,0.3,5.3,0.6,6.8h6.4c-0.3-2.4-0.6-6.8-0.6-9.9V62.2
		c0-10.1-6.2-13.8-15.2-13.8c-11.5,0-15.6,6-16.2,13.5h6.9c0.7-4.9,2.9-7.9,9.1-7.9c7.3,0,8.5,4.4,8.5,8.6v4.3h-6.6
		C460.1,66.9,455.9,74.3,455.9,81L455.9,81z M463.1,80.5c0-4,2-8.4,12.4-8.4h6.8v1c0,9.5-2.7,15.4-11.2,15.4
		C465.6,88.5,463.1,84.9,463.1,80.5L463.1,80.5z M506.4,80.8h-7c0.8,9.3,7.5,13.7,16.4,13.7c9.3,0,15.6-5.1,15.6-13.3
		c0-7.1-3.5-10.9-14.4-13.9c-7.2-1.9-8.8-3.8-8.8-7.1c0-3.7,2.2-6,7.1-6c5.9,0,7.7,3.5,8.4,7.1h7c-0.6-6.8-4.7-12.8-15-12.8
		c-10.5,0-14.4,6.5-14.4,12.4c0,6,2.7,9.9,13.3,12.9c7.3,2,10,4.1,10,8.2c0,3.8-2.3,7-8.2,7C510.8,88.8,507.2,86,506.4,80.8
		L506.4,80.8z"/>
	<path class="st2" d="M284.7,33.2H243v6.5h17.2v54h7.3v-54h17.3V33.2L284.7,33.2z M293.5,32.2v61.5h7.1V68.4
		c0-8.9,3.6-13.6,10.5-13.6c6.3,0,8.8,4,8.8,10.8v28.1h7V64.3c0-12.6-7.2-16-13.5-16c-6.5,0-10.8,3-12.8,7.3V32.2H293.5L293.5,32.2z
		 M338.9,71c0,12.2,5.4,23.5,18.7,23.5c13.9,0,19.3-10.9,19.3-23.8c0-12.8-6.5-22.4-18.7-22.4C345.1,48.4,338.9,59.2,338.9,71
		L338.9,71z M346.2,70.9c0-9.7,4-16.5,11.6-16.5c7.8,0,11.7,6.7,11.7,16.4c0,10.4-3.5,17.6-11.6,17.6
		C350.3,88.4,346.2,81.1,346.2,70.9L346.2,70.9z M395.6,49.3h-6.9c0.1,2,0.2,6,0.2,13.8v30.6h7V68.4c0-8.9,3.7-13.6,9.8-13.6
		c5.6,0,7.7,4.1,7.7,9.6v29.3h7V67.6c0-7.1,2.8-12.9,9.5-12.9c6.1,0,7.8,4.6,7.8,10.1v28.9h7V63.5c0-11.7-6.4-15.2-12.9-15.2
		c-6.5,0-10.9,3.6-12.7,7.6c-1.6-5-5.4-7.6-11-7.6c-6.3,0-10,3.3-12.1,7.2C395.8,54,395.8,50.5,395.6,49.3L395.6,49.3z M455.9,81
		c0,6.1,3.1,13.5,13.7,13.5c7.1,0,11.4-3.2,13.1-7.6c0,2.9,0.3,5.3,0.6,6.8h6.4c-0.3-2.4-0.6-6.8-0.6-9.9V62.2
		c0-10.1-6.2-13.8-15.2-13.8c-11.5,0-15.6,6-16.2,13.5h6.9c0.7-4.9,2.9-7.9,9.1-7.9c7.3,0,8.5,4.4,8.5,8.6v4.3h-6.6
		C460.1,66.9,455.9,74.3,455.9,81L455.9,81z M463.1,80.5c0-4,2-8.4,12.4-8.4h6.8v1c0,9.5-2.7,15.4-11.2,15.4
		C465.6,88.5,463.1,84.9,463.1,80.5L463.1,80.5z M506.4,80.8h-7c0.8,9.3,7.5,13.7,16.4,13.7c9.3,0,15.6-5.1,15.6-13.3
		c0-7.1-3.5-10.9-14.4-13.9c-7.2-1.9-8.8-3.8-8.8-7.1c0-3.7,2.2-6,7.1-6c5.9,0,7.7,3.5,8.4,7.1h7c-0.6-6.8-4.7-12.8-15-12.8
		c-10.5,0-14.4,6.5-14.4,12.4c0,6,2.7,9.9,13.3,12.9c7.3,2,10,4.1,10,8.2c0,3.8-2.3,7-8.2,7C510.8,88.8,507.2,86,506.4,80.8
		L506.4,80.8z"/>
	<path class="st1" d="M193.2,25.3c0,0,27,0,27,27V190c0,0,0,27-27,27H55.5c0,0-27,0-27-27V52.3c0,0,0-27,27-27H193.2L193.2,25.3z"/>
	<path class="st3" d="M71.5,190.9l-1.7-3.5c-1.8,3.4-3.6,6.8-5.3,10.4l1.7,3.7C67.9,197.8,69.7,194.3,71.5,190.9L71.5,190.9z
		 M63.3,195.2c1.7-3.5,3.5-7,5.3-10.3l-9.6-20.1c-2,3.1-3.9,6.2-5.7,9.5L63.3,195.2L63.3,195.2z M57.9,162.4L15.7,73.6h37.8V60.7
		h-45l-0.7,0.6l-5.9,5l50.2,105.6C54,168.6,56,165.5,57.9,162.4L57.9,162.4z M68.2,205.5l5.4,11.4h5.9h4.7v-2h-1.3l-9.6-20.3
		C71.5,198.2,69.8,201.8,68.2,205.5L68.2,205.5z"/>
	<path class="st0" d="M107.4,60.7H95.8l4.8,19.2h11.6L107.4,60.7L107.4,60.7z M98,79.9l-4.8-19.2H8.5l5.6,11.9l0,0l43.2,90.8
		c3.2-5.1,6.6-9.9,10-14.5l-32.8-69H98L98,79.9z M68.5,151.1c-3.4,4.6-6.8,9.5-10,14.6l9.6,20.2c3-5.6,6.2-10.9,9.4-15.9L68.5,151.1
		L68.5,151.1z M78.6,172.4c-3.2,5.1-6.3,10.4-9.3,16.1l1.7,3.5c2.9-5.7,6-11.2,9.2-16.4L78.6,172.4L78.6,172.4z M81.7,179.1
		c-3.1,5.3-6.1,10.9-9,16.7L82.8,217h16.9L81.7,179.1L81.7,179.1z M110,60.7l4.8,19.2h15.5L125.6,61l-0.1,0l-0.1-0.3H110L110,60.7z
		 M128.1,61l4.7,18.8h16.4c12.4-6.5,23.8-11.3,33.2-14.7L169,60.7H128L128.1,61L128.1,61L128.1,61z M186,66.4
		c-8.9,3.1-19.8,7.4-31.7,13.5h28.8c0.8-0.8,1.6-1.5,2.5-2.2c0,0,0.1-0.1,0.1-0.1c2.5-2.1,4.9-4,7.3-5.7c0,0,0,0,0,0
		c1-0.7,2-1.4,3-2L186,66.4L186,66.4z M199.2,70.9c-3.9,2.4-7.9,5.4-12.1,9h14.6c0.3-0.3,0.6-0.6,1-0.9v-7L199.2,70.9L199.2,70.9z
		 M204.8,72.8v4.4c1-0.8,1.9-1.5,2.8-2.2c0.1-0.1,0.2-0.1,0.3-0.2c0.4-0.3,0.7-0.5,1.1-0.7L204.8,72.8L204.8,72.8z M220.2,75.1v-3.3
		c-1.3,0.4-2.5,0.7-3.6,1.1c-0.4,0.2-0.8,0.4-1.2,0.6L220.2,75.1L220.2,75.1z M177.7,60.7l9,3c3.6-1.2,6.8-2.2,9.6-3H177.7
		L177.7,60.7z M190.3,65l8.6,2.9c1.1-0.7,2.2-1.3,3.3-1.9l5.9-5.3h-2.7C202.1,61.4,196.9,62.8,190.3,65L190.3,65z M211.8,61.5
		C211.8,61.5,211.9,61.5,211.8,61.5c0.8-0.3,1.5-0.6,2.2-0.8H211c-0.1,0.4-0.3,0.8-0.6,1l-0.7,0.7C210.3,62.1,211.1,61.8,211.8,61.5
		L211.8,61.5z M204.4,69.7l7.5,2.5c0.4-0.2,0.7-0.4,1.1-0.6c0.2-0.1,0.3-0.2,0.5-0.3c0.8-0.4,1.5-0.8,2.2-1.1c1.4-0.5,2.8-1,4.5-1.4
		v0c0,0,0,0,0,0v-7.1c-0.5,0.1-1.1,0.3-1.6,0.4c-0.1,0-0.1,0-0.2,0.1c-0.6,0.2-1.1,0.3-1.7,0.5c0,0-0.1,0-0.1,0
		c-3.9,1.2-8.4,3.1-13.4,5.8C203.6,68.8,204.1,69.2,204.4,69.7L204.4,69.7z M208.4,77.8c-0.9,0.6-1.8,1.3-2.7,2.1h14.5v-2
		c-0.2,0-0.5,0-0.7-0.1l-7.3-2.5c-1,0.6-2.1,1.3-3.2,2.1C208.8,77.5,208.6,77.6,208.4,77.8L208.4,77.8z"/>
	<path class="st4" d="M177.8,85.1c-9.5,3.7-23.2,10-38.5,20.4l0.6,2.4c14.6-11,27.7-17.9,37.1-22C177.2,85.6,177.5,85.4,177.8,85.1
		L177.8,85.1z M128.3,117.3c3.2-2.8,6.4-5.4,9.5-7.8l-0.6-2.5c-3.4,2.4-6.9,4.9-10.4,7.7L128.3,117.3L128.3,117.3z M113.5,131.5
		c3.1-3.3,6.2-6.4,9.3-9.2l-0.2-0.8l-1.9-1.7c-0.1,0.1-0.2,0.2-0.3,0.2l-1.7,2.1l1-1.4c-2.4,2.1-4.8,4.3-7.3,6.6L113.5,131.5
		L113.5,131.5z M62.3,213.5c13.7-34.6,31.4-60.5,49.2-79.8l-1.1-4.5c-20.9,20.3-41.8,48.6-57.2,87.8h7.6
		C61.2,215.8,61.7,214.6,62.3,213.5L62.3,213.5z M188.5,83.6l-0.8,0.8l1.2-0.8C188.8,83.7,188.6,83.6,188.5,83.6L188.5,83.6z
		 M191.3,80.7c0,0-2.8,0.7-7.6,2.3c-0.2,0.1-0.3,0.3-0.5,0.4C188.3,81.4,191.3,80.7,191.3,80.7L191.3,80.7z"/>
	<path class="st5" d="M36.8,210.3c16.3-44.6,42.2-76.4,69-98.9l4.6,18.4c-20.6,19.9-41.2,47.7-56.2,86.2l-0.6,1
		C50.2,216.6,42.7,215.3,36.8,210.3L36.8,210.3z M190.2,65c11.6-3.7,18.8-5,18.8-5l-6.7,6.1c-1.1,0.6-2.2,1.2-3.3,1.9L190.2,65
		L190.2,65z M197,88.3c1.9-2.2,3.8-4,5.6-5.7v5.7L197,88.3L197,88.3z M194.3,87.5c-2-1.5-4.4-2.4-7-2.4c0,0-0.1,0-0.1,0l2.9-2.9
		c0,0-3,0.7-8.1,2.4c6-5.8,11.8-10.3,17.2-13.7h0.1l3.3,1.1v7C200,81.4,197.2,84.2,194.3,87.5L194.3,87.5z M117.7,102.1l4.3,17.2
		c-3.1,2.6-6.3,5.4-9.5,8.4l-4.5-18.1C111.2,107,114.5,104.5,117.7,102.1L117.7,102.1z M139.4,106.2l-4-16
		c19.1-11.7,37.1-19.2,50.4-23.8l10.1,3.4c-6.2,4.1-12.9,9.6-19.7,16.9C167,90.3,154,96.4,139.4,106.2L139.4,106.2z M133.2,91.5
		l4,16.2c-4.3,3-8.7,6.2-13.1,9.8l-4.3-17.1C124.4,97.2,128.8,94.3,133.2,91.5L133.2,91.5z"/>
	<path class="st6" d="M216.2,60l4-1.3v-1L110.3,20.5l-4.4,15.9l93.1,31.5C205.5,63.9,211.4,61.5,216.2,60L216.2,60z M128.4,25.8
		l91.8,31.1v-0.6l-93-31.5C127.5,25.2,127.9,25.6,128.4,25.8L128.4,25.8z M220.1,61.7c-4.7,1.2-10.8,3.3-17.7,7.3l9.5,3.2
		c1.3-0.8,2.6-1.5,3.8-2c1.4-0.5,2.8-1,4.5-1.4L220.1,61.7L220.1,61.7L220.1,61.7z M216.5,72.8c-0.4,0.2-0.8,0.4-1.2,0.6l4.8,1.6
		v-3.3C218.8,72.1,217.7,72.4,216.5,72.8L216.5,72.8z"/>
	<path class="st6" d="M133.7,165.9L92.6,1.8L82.3,6.9l45.2,180.6C129.5,179.8,131.6,172.6,133.7,165.9L133.7,165.9z M128.9,192.7
		l6.1,24.3h11.6l-1.7-6.7c-0.5,2.1-1,4.2-1.5,6.3c0.4,0,0.7,0.2,1.1,0.4h-3.7c0.9-4.1,1.9-8.1,2.9-12l-8.6-34.4
		C132.8,177.5,130.8,184.9,128.9,192.7L128.9,192.7z"/>
	<path class="st7" d="M216.5,59.9l3.7-1.2v-2.6L113.1,10.6l0,0L92.6,1.9l3.3,13.3l0,0.1l1.6,6.5l0.1,0l36.1,144.1
		c3.4-10.8,7.1-20.5,11-29.2L118.1,30.5l83.9,35.6C207.4,63.1,212.4,61.1,216.5,59.9L216.5,59.9z M145.7,140.8
		c-3.8,8.9-7.4,18.8-10.8,29.8l8.6,34.4c3.1-12.6,6.3-24.1,9.6-34.5L145.7,140.8L145.7,140.8z M154.3,175.3
		c-3.2,10.6-6.4,22.2-9.5,35.1l1.7,6.7h4.1c2.3-10.1,4.7-19.4,7.1-28.2L154.3,175.3L154.3,175.3z M159.1,194.2
		c-1.9,7.2-3.8,14.8-5.7,22.8h11.4L159.1,194.2L159.1,194.2z M220.1,61.7c-4,1-9.1,2.8-14.9,5.7l8.7,3.7c0.6-0.3,1.3-0.6,1.9-0.9
		c1.4-0.5,2.8-1,4.5-1.4v2.9c-1.1,0.3-2,0.6-2.9,0.9l2.9,1.3V61.7L220.1,61.7L220.1,61.7z"/>
	<path class="st8" d="M219.9,61.8c-21.5,5.5-73,31.6-96.2,155.2h17c24.9-108.8,57.7-138.7,75-146.7c1.4-0.5,2.8-1,4.5-1.4v1.4h0
		v-8.6L219.9,61.8L219.9,61.8z"/>
	<path class="st9" d="M220.2,83.7V68.8c-1.4,0.4-3,0.8-4.8,1.5c-16.3,7.6-49.8,36.7-75,146.7h10.2c2.7-11.9,5.5-22.8,8.4-32.8h0.1
		C179.2,108,208.4,88.5,220.2,83.7L220.2,83.7z"/>
</g>
</svg>
