<?xml version="1.0" encoding="UTF-8" standalone="no"?>
<!DOCTYPE svg PUBLIC "-//W3C//DTD SVG 1.1//EN" "http://www.w3.org/Graphics/SVG/1.1/DTD/svg11.dtd">
<svg width="100%" height="100%" viewBox="0 0 520 400" version="1.1" xmlns="http://www.w3.org/2000/svg" xmlns:xlink="http://www.w3.org/1999/xlink" xml:space="preserve" xmlns:serif="http://www.serif.com/" style="fill-rule:evenodd;clip-rule:evenodd;stroke-linejoin:round;stroke-miterlimit:1.5;">
    <g id="Artboard1" transform="matrix(1,0,0,1,-140,-100)">
        <rect x="140" y="100" width="520" height="400" style="fill:none;"/>
        <clipPath id="_clip1">
            <rect x="140" y="100" width="520" height="400"/>
        </clipPath>
        <g clip-path="url(#_clip1)">
            <g transform="matrix(0.957595,0,0,0.957595,14.0254,7.29371)">
                <path d="M403.067,96.812C518.338,96.812 611.923,190.397 611.923,305.668C611.923,420.939 518.338,514.525 403.067,514.525C287.795,514.525 194.21,420.939 194.21,305.668C194.21,190.397 287.795,96.812 403.067,96.812ZM403.067,128.14C501.047,128.14 580.595,207.688 580.595,305.668C580.595,403.648 501.047,483.196 403.067,483.196C305.086,483.196 225.538,403.648 225.538,305.668C225.538,207.688 305.086,128.14 403.067,128.14Z" style="fill:rgb(23,110,194);"/>
            </g>
            <path d="M660,100L140,100L400,500L660,100ZM195.281,130L400,444.953L604.719,130L195.281,130Z" style="fill:rgb(23,110,194);"/>
            <path d="M400,100L400,500" style="fill:none;stroke:rgb(23,110,194);stroke-width:30px;"/>
        </g>
    </g>
</svg>
