<?xml version="1.0" encoding="UTF-8" standalone="no"?>
<svg
   width="100%"
   height="100%"
   viewBox="0 0 898 898"
   version="1.1"
   xml:space="preserve"
   style="fill-rule:evenodd;clip-rule:evenodd;stroke-linejoin:round;stroke-miterlimit:2;"
   id="svg1743"
   sodipodi:docname="drone.svg"
   inkscape:version="1.2 (dc2aedaf03, 2022-05-15)"
   xmlns:inkscape="http://www.inkscape.org/namespaces/inkscape"
   xmlns:sodipodi="http://sodipodi.sourceforge.net/DTD/sodipodi-0.dtd"
   xmlns="http://www.w3.org/2000/svg"
   xmlns:svg="http://www.w3.org/2000/svg"><defs
   id="defs1747">
        
        
        
    
            
        
                
            <clipPath
   clipPathUnits="userSpaceOnUse"
   id="clipPath6557"><rect
     x="141"
     y="23.000217"
     width="897.63702"
     height="897.26599"
     id="rect6559" /></clipPath></defs><sodipodi:namedview
   id="namedview1745"
   pagecolor="#ffffff"
   bordercolor="#666666"
   borderopacity="1.0"
   inkscape:showpageshadow="2"
   inkscape:pageopacity="0.0"
   inkscape:pagecheckerboard="0"
   inkscape:deskcolor="#d1d1d1"
   showgrid="false"
   inkscape:zoom="0.45489978"
   inkscape:cx="390.19584"
   inkscape:cy="812.26683"
   inkscape:window-width="1276"
   inkscape:window-height="1396"
   inkscape:window-x="1920"
   inkscape:window-y="20"
   inkscape:window-maximized="1"
   inkscape:current-layer="svg1743" />
    <rect
   x="0"
   y="0.00020094604"
   width="897.63702"
   height="897.26599"
   style="fill:none"
   id="rect1731" /><path
   d="m 845.571,527.099 c 35.477,0.239 74.632,12.282 105.817,33.072 17.428,11.619 35.093,28.203 47.86,44.931 18.142,23.767 31.352,54.108 36.962,84.898 2.92,15.962 3.14,52.631 0.41,67.46 -9.69,52.653 -37.647,96.932 -80.696,127.797 -12.315,8.83 -37.427,21.422 -51.934,26.042 -22.179,7.062 -36.53,9.46 -58.692,9.552 l -1.115,0.003 c -1.12,10e-4 -2.262,-0.004 -3.426,-0.014 -10.042,-0.088 -19.832,-0.337 -21.757,-0.554 -1.925,-0.217 -8.9,-1.48 -15.5,-2.807 -51.408,-10.334 -95.874,-40.067 -125.42,-83.862 -23.474,-34.794 -35.976,-82.308 -32.132,-122.117 1.361,-14.099 1.695,-15.5 3.694,-15.5 l 0.033,0.002 c 1.483,0.156 15.818,10.341 77.021,54.704 9.53,6.908 10.335,7.764 12.315,13.093 13.19,35.498 46.476,63.218 83.708,69.711 6.411,1.118 12.801,1.662 19.111,1.665 l 0.652,-10e-4 c 49.151,-0.261 93.534,-33.214 107.072,-82.281 3.607,-13.076 4.432,-32.706 1.955,-46.542 -6.93,-38.71 -30.931,-68.926 -66.77,-84.061 l -8.976,-3.79 -13.718,-19 C 854.5,589.05 840.603,569.86 831.163,556.855 821.723,543.85 814,532.518 814,531.672 c 0,-1.969 1.215,-2.281 14.5,-3.73 5.249,-0.572 10.631,-0.851 16.104,-0.847 z M 308.778,919.5 C 228.821,906.579 165.79,849.316 146.58,772.143 142.058,753.977 141.5,748.576 141.5,723 c 0,-21.666 0.268,-25.825 2.32,-35.956 6.338,-31.304 20.027,-61.009 39.199,-85.064 8.909,-11.177 28.432,-29.965 38.852,-37.389 25.707,-18.314 55.487,-30.432 87.733,-35.7 16.529,-2.7 54.339,-1.219 56.46,2.212 0.374,0.605 -7.04,11.742 -16.475,24.748 -9.435,13.007 -23.511,32.431 -31.28,43.165 l -14.127,19.516 -7.905,3.232 c -32.869,13.439 -57.547,41.601 -66.24,75.592 -3.146,12.302 -4.27,26.013 -3.013,36.766 4.737,40.51 27.191,72.867 62.476,90.03 14.405,7.007 26.709,9.965 44,10.578 10.609,0.376 16.18,0.089 23,-1.186 24.303,-4.542 45.749,-16.174 61.765,-33.501 10.431,-11.285 15.813,-20.083 24.19,-39.543 0.964,-2.239 12.114,-10.805 43.929,-33.75 23.45,-16.912 43.259,-30.75 44.018,-30.75 1.722,0 2.262,2.135 3.687,14.582 2.042,17.837 -0.188,42.55 -5.766,63.918 -12.694,48.619 -45.407,92.276 -88.773,118.47 -18.538,11.197 -42.893,20.594 -65.05,25.097 -14.126,2.872 -51.744,3.691 -65.722,1.433 z M 759,549.14 l 14.927,20.68 c 8.21,11.374 27.448,37.98 42.75,59.123 l 27.823,38.444 7.945,1.33 c 31.736,5.315 52.537,37.281 45.018,69.18 -4.769,20.228 -22.909,37.94 -43.164,42.145 -8.105,1.682 -23.329,0.748 -30.688,-1.883 -19.957,-7.135 -34.827,-25.402 -37.412,-45.958 l -0.699,-5.558 -23,-16.642 c -12.65,-9.153 -39.304,-28.423 -59.23,-42.822 L 667.04,641 H 513.231 l -13.866,9.935 c -7.626,5.465 -34.316,24.702 -59.312,42.75 l -45.447,32.815 -1.334,7.989 c -2.932,17.547 -14.113,32.457 -30.272,40.364 -4.675,2.288 -10.924,4.607 -13.886,5.153 -7.525,1.388 -19.631,1.127 -25.895,-0.559 -25.36,-6.827 -42.152,-28.904 -42.204,-55.487 -0.055,-27.954 19.345,-50.576 47.485,-55.373 l 7,-1.193 17,-23.505 c 9.35,-12.927 28.587,-39.536 42.75,-59.131 L 421,549.132 V 394.86 l -14.927,-20.68 c -8.21,-11.374 -27.455,-38.004 -42.766,-59.178 l -27.839,-38.498 -5.511,-0.688 c -20.274,-2.532 -37.785,-16.504 -45.671,-36.439 -2.47,-6.242 -2.721,-8.077 -2.718,-19.877 0.003,-11.264 0.316,-13.801 2.349,-19 9.085,-23.231 29.598,-37.437 54.123,-37.485 9.376,-0.019 17.269,1.987 26.118,6.637 8.973,4.715 14.721,9.893 20.301,18.286 5.305,7.981 7.263,12.911 8.946,22.535 l 1.22,6.973 22.937,16.61 c 12.616,9.136 39.249,28.386 59.184,42.777 L 512.992,303 h 153.827 l 11.34,-8.154 c 74.684,-53.698 107.054,-77.298 107.299,-78.228 0.161,-0.615 0.774,-4.242 1.361,-8.061 1.605,-10.439 6.996,-20.476 15.586,-29.023 28.124,-27.98 75.147,-19.47 91.481,16.555 15.753,34.742 -6.037,74.295 -43.886,79.659 l -5.499,0.779 -17.001,23.544 c -9.35,12.95 -28.587,39.576 -42.75,59.171 L 759,394.869 Z M 317.5,415.886 C 283.23,412.671 247.056,398.343 218.273,376.581 181.512,348.788 154.377,306.017 145.099,261.247 140.7,240.016 139.646,211.071 142.545,191.128 153.986,112.446 212.419,47.828 289.5,28.617 305.584,24.608 319.284,23 337.344,23 c 43.233,0 79.895,11.7 115.913,36.99 10.885,7.644 33.878,30.174 42.1,41.255 22.752,30.66 35.659,65.52 38.697,104.51 1.045,13.415 0.186,34.231 -1.67,40.495 -1.112,3.751 0.836,5.044 -69.71,-46.25 -18.705,-13.601 -20.052,-14.795 -21.711,-19.25 -11.201,-30.072 -36.976,-55.442 -66.624,-65.579 -13.839,-4.732 -20.109,-5.671 -37.839,-5.669 -15.524,0.002 -17.863,0.243 -26.942,2.778 -19.112,5.335 -35.262,14.466 -48.894,27.645 -16.897,16.336 -27.162,35.041 -32.148,58.584 -1.979,9.341 -1.957,30.943 0.041,41.48 4.039,21.288 14.249,40.743 29.785,56.754 11.356,11.702 28.559,22.866 41.907,27.196 3.276,1.062 5.5,3.641 17.587,20.388 7.611,10.545 21.561,29.813 31.001,42.818 9.44,13.005 17.163,24.332 17.163,25.171 0,1.858 -2.296,2.369 -16.5,3.673 -12.395,1.137 -18.998,1.116 -32,-0.103 z m 510.663,0.073 c -9.911,-1.039 -13.983,-1.859 -14.659,-2.953 -0.312,-0.504 2.515,-5.099 6.281,-10.211 3.766,-5.112 17.91,-24.595 31.432,-43.295 l 24.585,-34 9.849,-4.246 c 54.867,-23.654 80.875,-84.175 60.346,-140.425 -12.829,-35.153 -42.618,-60.963 -80.179,-69.472 -10.178,-2.305 -12.779,-2.513 -25.818,-2.064 -11.078,0.381 -16.978,1.121 -25,3.133 -33.415,8.38 -61.937,33.324 -75.202,65.768 l -3.285,8.036 -42.752,30.885 C 670.247,234.102 650.341,248 649.524,248 c -3.987,0 -5.845,-32.28 -3.062,-53.189 8.214,-61.704 43.89,-115.097 97.568,-146.02 18.651,-10.744 36.982,-17.645 59.813,-22.519 11.797,-2.518 14.356,-2.704 37.657,-2.737 26.067,-0.036 29.34,0.306 49,5.123 50.928,12.48 95.88,46.651 122.64,93.228 23.89,41.583 31.7,91.318 21.82,138.97 -10.42,50.255 -41.766,95.616 -85.984,124.422 -35.473,23.109 -81.513,34.802 -120.813,30.681 z"
   style="fill:#4f86d4;fill-opacity:1"
   id="path1736"
   transform="translate(-141,-23.000016)"
   clip-path="url(#clipPath6557)" />
            
        
</svg>
