<?xml version="1.0" encoding="UTF-8" standalone="no"?>
<svg
   width="100%"
   height="100%"
   viewBox="0 0 520 520"
   version="1.1"
   xml:space="preserve"
   style="fill-rule:evenodd;clip-rule:evenodd;stroke-linejoin:round;stroke-miterlimit:1.5;"
   id="svg20096"
   sodipodi:docname="tjhsst.svg"
   inkscape:version="1.2 (dc2aedaf03, 2022-05-15)"
   xmlns:inkscape="http://www.inkscape.org/namespaces/inkscape"
   xmlns:sodipodi="http://sodipodi.sourceforge.net/DTD/sodipodi-0.dtd"
   xmlns="http://www.w3.org/2000/svg"
   xmlns:svg="http://www.w3.org/2000/svg"><defs
   id="defs20100">
        
        
        
    
            
        
                
                
            
                    
                    
                    
                <clipPath
   clipPathUnits="userSpaceOnUse"
   id="clipPath20621"><rect
     x="139.90401"
     y="39.999699"
     width="520"
     height="520"
     id="rect20623"
     style="stroke-width:1" /></clipPath>
                        
                    <clipPath
   clipPathUnits="userSpaceOnUse"
   id="clipPath20631"><rect
     x="131.45287"
     y="34.154301"
     width="543.02704"
     height="543.02704"
     id="rect20633"
     style="stroke-width:0.999997" /></clipPath></defs><sodipodi:namedview
   id="namedview20098"
   pagecolor="#ffffff"
   bordercolor="#666666"
   borderopacity="1.0"
   inkscape:showpageshadow="2"
   inkscape:pageopacity="0.0"
   inkscape:pagecheckerboard="0"
   inkscape:deskcolor="#d1d1d1"
   showgrid="false"
   inkscape:zoom="0.8625"
   inkscape:cx="143.18841"
   inkscape:cy="457.3913"
   inkscape:window-width="1276"
   inkscape:window-height="1396"
   inkscape:window-x="3200"
   inkscape:window-y="20"
   inkscape:window-maximized="1"
   inkscape:current-layer="svg20096" />
    <rect
   x="8.3007817e-06"
   y="-0.00050047605"
   width="520"
   height="520"
   style="fill:none;stroke-width:1.14018"
   id="rect20075" /><rect
   x="0.096000001"
   y="59.999802"
   width="520"
   height="400"
   style="fill:none"
   id="rect20080" /><path
   d="m 403.067,96.812 c 115.271,0 208.856,93.585 208.856,208.856 0,115.271 -93.585,208.857 -208.856,208.857 -115.272,0 -208.857,-93.586 -208.857,-208.857 0,-115.271 93.585,-208.856 208.857,-208.856 z m 0,31.328 c 97.98,0 177.528,79.548 177.528,177.528 0,97.98 -79.548,177.528 -177.528,177.528 -97.981,0 -177.529,-79.548 -177.529,-177.528 0,-97.98 79.548,-177.528 177.529,-177.528 z"
   style="fill:#4f85d4;fill-opacity:1"
   id="path20082"
   transform="matrix(0.957595,0,0,0.957595,-125.8786,-32.70649)"
   clip-path="url(#clipPath20631)" /><path
   d="M 660,100 H 140 L 400,500 Z M 195.281,130 400,444.953 604.719,130 Z"
   style="fill:#4f86d4;fill-opacity:1"
   id="path20086"
   transform="translate(-139.904,-40.0002)"
   clip-path="url(#clipPath20621)" /><path
   d="M 260.096,90.891408 V 459.9998"
   style="fill:none;stroke:#4f87d4;stroke-width:30px;stroke-opacity:1"
   id="path20088" />
            
        
</svg>
